<svg width="160" height="22" viewBox="0 0 160 22" fill="none" xmlns="http://www.w3.org/2000/svg">
<path d="M30.0752 15.0875C30.0752 15.2109 29.9768 15.3093 29.8535 15.3093H26.296C26.1726 15.3093 26.0742 15.2109 26.0742 15.0875V11.0694C26.0742 10.9461 26.1726 10.8477 26.296 10.8477H29.8535C29.9768 10.8477 30.0752 10.9461 30.0752 11.0694V15.0875ZM35.0906 15.0875C35.0906 15.2109 34.9922 15.3093 34.8689 15.3093H31.3114C31.188 15.3093 31.0896 15.2109 31.0896 15.0875V11.0694C31.0896 10.9461 31.188 10.8477 31.3114 10.8477H34.8689C34.9922 10.8477 35.0906 10.9461 35.0906 11.0694V15.0875ZM40.4105 21.0582C40.3606 21.1816 40.2373 21.2564 40.089 21.2564H33.949C33.8256 21.2564 33.7758 21.1579 33.8007 21.0582L38.1783 11.0878C38.2518 10.9644 38.3765 10.8647 38.4998 10.8647H44.6648C44.7632 10.8647 44.838 10.9881 44.7881 11.0878L40.4105 21.0582Z" fill="#0D1421"/>
<path d="M66.1875 14.1503C66.1875 14.2736 66.0891 14.3484 65.9657 14.3484L57.5464 14.1856C57.423 14.1607 57.3246 14.2591 57.3246 14.3837V21.0302C57.3246 21.1536 57.2262 21.252 57.1029 21.252H46.8976C46.7742 21.252 46.6758 21.1536 46.6758 21.0302V0.694425C46.6758 0.571074 46.7742 0.472656 46.8976 0.472656H57.1029C57.2262 0.472656 57.3246 0.571074 57.3246 0.694425V7.43935C57.3246 7.58763 57.423 7.68605 57.5464 7.68605L65.9657 7.81478C66.0891 7.81478 66.1875 7.9132 66.1875 8.03655V14.149V14.1503Z" fill="#0D1421"/>
<path d="M90.7108 21.0302C90.7108 21.1536 90.6124 21.252 90.4891 21.252H71.2315C71.1082 21.252 71.0098 21.1536 71.0098 21.0302V15.0018C71.0098 14.8785 71.1082 14.78 71.2315 14.78H82.3908C82.5142 14.78 82.6126 14.6816 82.6126 14.5583V7.19527C82.6126 7.07192 82.5142 6.97219 82.3908 6.97219H71.2315C71.1082 6.97219 71.0098 6.84884 71.0098 6.72549V0.694425C71.0098 0.571074 71.1082 0.472656 71.2315 0.472656H90.4891C90.6124 0.472656 90.7108 0.571074 90.7108 0.694425V21.0302Z" fill="#0D1421"/>
<path d="M115.904 8.57417C115.904 8.69752 115.806 8.79725 115.683 8.82087L109.839 10.0321C109.691 10.057 109.617 10.1804 109.617 10.3037V20.9289C109.617 21.0523 109.519 21.1507 109.396 21.1507H100.612C100.489 21.1507 100.391 21.0523 100.391 20.9289V11.8364C100.391 11.7131 100.292 11.6383 100.169 11.6383L93.6143 12.8744C93.491 12.8744 93.3926 12.7996 93.3926 12.6762V4.72011C93.3926 4.57183 93.491 4.47341 93.6143 4.44848L115.683 0.419892C115.806 0.39496 115.904 0.49469 115.904 0.593108V8.57417Z" fill="#0D1421"/>
<path d="M143.633 12.0268C143.633 12.1502 143.534 12.2486 143.411 12.2486H134.788C134.64 12.2486 134.542 12.347 134.492 12.4703L132.267 21.0304C132.242 21.1537 132.144 21.2521 131.996 21.2521H123.475C123.376 21.2521 123.277 21.1537 123.301 21.0304L125.526 12.4703C125.551 12.347 125.476 12.2486 125.352 12.2486H118.127C118.004 12.2486 117.905 12.1502 117.905 12.0268V5.52298C117.905 5.39963 118.004 5.2999 118.127 5.2999H126.81C126.934 5.2999 127.057 5.20148 127.082 5.07813L127.848 0.221769C127.873 0.0984182 127.972 0 128.12 0H136.641C136.74 0 136.839 0.123351 136.814 0.221769L136.048 5.07813C136.023 5.20148 136.098 5.2999 136.221 5.2999H143.411C143.534 5.2999 143.633 5.39831 143.633 5.52298V12.0255V12.0268Z" fill="#0D1421"/>
<path fill-rule="evenodd" clip-rule="evenodd" d="M10.497 0.474609L18.1386 0.583984V5.54102C18.1388 5.77645 18.3298 5.9668 18.5653 5.9668H25.2089L22.0624 21.0322H22.0605C22.0355 21.1556 21.9373 21.2539 21.789 21.2539H11.6083C11.51 21.2536 11.4106 21.1554 11.4355 21.0322L14.0048 9.2959C14.0297 9.19758 13.9316 9.07252 13.8319 9.07227H9.06339C8.94003 9.07227 8.81586 9.17124 8.79092 9.2959L7.65518 14.5586C7.63028 14.6818 7.50691 14.78 7.3837 14.7803H0.177643C0.0543586 14.7802 -0.0201335 14.6819 0.0047916 14.5586L3.02042 0.696289C3.04543 0.548151 3.16861 0.474609 3.2919 0.474609H10.497Z" fill="#0D1421"/>
<path d="M160 15.4816C160 15.605 159.902 15.7034 159.778 15.7034H145.534C145.411 15.7034 145.312 15.605 145.312 15.4816V8.268C145.312 8.14465 145.411 8.04492 145.534 8.04492H159.778C159.902 8.04492 160 8.14334 160 8.268V15.4816Z" fill="#0D1421"/>
<path d="M23.4492 4.68419C23.4492 4.79442 23.3508 4.90465 23.2275 4.90465H19.422C19.3235 4.90465 19.2002 4.79442 19.2002 4.68419V0.852445C19.2002 0.742217 19.3235 0.654297 19.422 0.654297H23.2275C23.3508 0.654297 23.4492 0.742217 23.4492 0.852445V4.68288V4.68419Z" fill="#0D1421"/>
<path d="M28.7618 4.68419C28.7618 4.79442 28.6628 4.90465 28.5387 4.90465H24.7349C24.6107 4.90465 24.5117 4.79442 24.5117 4.68419V0.852445C24.5117 0.742217 24.6107 0.654297 24.7349 0.654297H28.5387C28.6628 0.654297 28.7618 0.742217 28.7618 0.852445V4.68288V4.68419Z" fill="#0D1421"/>
<path d="M62.6367 4.58654C62.6367 4.69677 62.5383 4.80699 62.415 4.80699H58.6095C58.511 4.80699 58.3877 4.69677 58.3877 4.58654V0.754789C58.3877 0.644561 58.511 0.556641 58.6095 0.556641H62.415C62.5383 0.556641 62.6367 0.644561 62.6367 0.754789V4.58522V4.58654Z" fill="#0D1421"/>
<path d="M67.9493 4.58654C67.9493 4.69676 67.8503 4.80699 67.7262 4.80699H63.9224C63.7982 4.80699 63.6992 4.69676 63.6992 4.58654V0.754789C63.6992 0.644561 63.7982 0.556641 63.9224 0.556641H67.7262C67.8503 0.556641 67.9493 0.644561 67.9493 0.754789V4.58522V4.58654Z" fill="#0D1421"/>
</svg>
