<svg width="20" height="20" viewBox="0 0 20 20" fill="none" xmlns="http://www.w3.org/2000/svg">
<path d="M13.334 7.83333L5.91732 15.25C5.76454 15.4028 5.5701 15.4792 5.33398 15.4792C5.09787 15.4792 4.90343 15.4028 4.75065 15.25C4.59787 15.0972 4.52148 14.9028 4.52148 14.6667C4.52148 14.4306 4.59787 14.2361 4.75065 14.0833L12.1673 6.66667H5.83398C5.59787 6.66667 5.39996 6.58681 5.24023 6.42708C5.08051 6.26736 5.00065 6.06944 5.00065 5.83333C5.00065 5.59722 5.08051 5.39931 5.24023 5.23958C5.39996 5.07986 5.59787 5 5.83398 5H14.1673C14.4034 5 14.6013 5.07986 14.7611 5.23958C14.9208 5.39931 15.0007 5.59722 15.0007 5.83333V14.1667C15.0007 14.4028 14.9208 14.6007 14.7611 14.7604C14.6013 14.9201 14.4034 15 14.1673 15C13.9312 15 13.7333 14.9201 13.5736 14.7604C13.4138 14.6007 13.334 14.4028 13.334 14.1667V7.83333Z" fill="#0D1421"/>
</svg>
